# xmcd CD database file
#
# Track frame offsets:
#	150
#	25456
#	43957
#	77047
#	84653
#	115119
#	140417
#	158941
#	192855
#	214645
#	231419
#	259709
#	287993
#
# Disc length: 4175 seconds
#
# Revision: 2
# Processed by: cddbd v1.5.2PL0 Copyright (c) Steve Scherf et al.
# Submitted via: CDex 1.81
#
DISCID=bc104d0d
DTITLE=Naoya Matsuoka - Drive Best!
DYEAR=2013
DGENRE=Jazz
TTITLE0=Venus Wo Sagase (2013 remastered version)
TTITLE1=U Turn (2013 remastered version)
TTITLE2=Noche Corriendo (2013 remastered version)
TTITLE3=Denensi (2013 remastered version)
TTITLE4=Natsu No Tabi (2013 remastered version)
TTITLE5=Sunspot Dance (2013 remastered version)
TTITLE6=Free Voyage (2013 remastered version)
TTITLE7=On A Summer Day (Part 2) (2013 remastered version)
TTITLE8=The Striker-Shorino Striker- (2013 remastered version)
TTITLE9=Good Looking (2013 remastered version)
TTITLE10=Touch The New York Pink (2013 remastered version)
TTITLE11=The September Wind [You're Romantic] (2013 remastered version)
TTITLE12=The Wing (2013 remastered version)
EXTD=YEAR: 2013
EXTT0=
EXTT1=
EXTT2=
EXTT3=
EXTT4=
EXTT5=
EXTT6=
EXTT7=
EXTT8=
EXTT9=
EXTT10=
EXTT11=
EXTT12=
PLAYORDER=
